<svg width="28" height="28" viewBox="0 0 28 28" fill="none" xmlns="http://www.w3.org/2000/svg">
<path d="M7.72333 12.5883C9.40333 15.89 12.11 18.5967 15.4117 20.2767L17.9783 17.71C18.305 17.3833 18.76 17.29 19.1683 17.4183C20.475 17.85 21.875 18.0833 23.3333 18.0833C23.6428 18.0833 23.9395 18.2062 24.1583 18.425C24.3771 18.6438 24.5 18.9406 24.5 19.25V23.3333C24.5 23.6428 24.3771 23.9395 24.1583 24.1583C23.9395 24.3771 23.6428 24.5 23.3333 24.5C18.0732 24.5 13.0285 22.4104 9.30905 18.691C5.58958 14.9715 3.5 9.92679 3.5 4.66667C3.5 4.35725 3.62292 4.0605 3.84171 3.84171C4.0605 3.62292 4.35725 3.5 4.66667 3.5H8.75C9.05942 3.5 9.35617 3.62292 9.57496 3.84171C9.79375 4.0605 9.91667 4.35725 9.91667 4.66667C9.91667 6.125 10.15 7.525 10.5817 8.83167C10.71 9.24 10.6167 9.695 10.29 10.0217L7.72333 12.5883Z" fill="black"/>
</svg>
