<svg width="28" height="28" viewBox="0 0 28 28" fill="none" xmlns="http://www.w3.org/2000/svg">
<g clip-path="url(#clip0_8_2)">
<path d="M13.565 0.4375C6.07281 0.4375 0.00250244 6.50781 0.00250244 14C0.00250244 21.4922 6.07281 27.5625 13.565 27.5625C21.0572 27.5625 27.1275 21.4922 27.1275 14C27.1275 6.50781 21.0572 0.4375 13.565 0.4375ZM6.1275 12.2172C6.30797 9.91484 7.88844 8.3125 9.19 8.3125C10.4916 8.3125 12.072 9.91484 12.2525 12.2172C12.2908 12.6875 11.6619 12.868 11.4377 12.4633L10.9181 11.5336C10.497 10.7844 9.86813 10.3523 9.19547 10.3523C8.52282 10.3523 7.89391 10.7844 7.47282 11.5336L6.95328 12.4633C6.71813 12.868 6.08922 12.682 6.1275 12.2172ZM19.8431 18.9328C18.2845 20.8031 15.9986 21.875 13.565 21.875C11.1314 21.875 8.84547 20.8031 7.28688 18.9328C6.5486 18.0414 7.88844 16.9258 8.63219 17.8117C9.85719 19.2828 11.6509 20.1195 13.565 20.1195C15.4791 20.1195 17.2728 19.2773 18.4978 17.8117C19.2416 16.9258 20.5814 18.0469 19.8431 18.9328ZM20.1822 12.4633L19.6627 11.5336C19.2416 10.7844 18.6127 10.3523 17.94 10.3523C17.2673 10.3523 16.6384 10.7844 16.2173 11.5336L15.6978 12.4633C15.4736 12.8625 14.8447 12.682 14.883 12.2172C15.0634 9.91484 16.6439 8.3125 17.9455 8.3125C19.247 8.3125 20.8275 9.91484 21.008 12.2172C21.0408 12.6875 20.4064 12.868 20.1822 12.4633Z" fill="#0A8EC2"/>
</g>
<defs>
<clipPath id="clip0_8_2">
<rect width="27.13" height="28" fill="white"/>
</clipPath>
</defs>
</svg>
